<svg xmlns="http://www.w3.org/2000/svg" width="250" height="250" fill="none" viewBox="0 0 250 250">
<!-- SVG created with Arrow, by QuiverAI (https://quiver.ai) -->
  <path d="m209.6 108.1c-3.03-0.4-5.21 0.66-6.62 2.15l-9.53-4.16c-4.32-1.5-5.15-5.14-2.19-8.21l10.39-9.57c2.11 1.28 5.61 1.66 8.26-1.11 3.89-4.04 1.34-11.38-4.99-11.38-5.39 0-7.66 6.36-6.14 10.1l-10.82 10.69c-2.87 2.33-3.76-0.06-2.81-3.53l6.92-29.28c4.59-0.45 6.54-4.25 6.54-6.88 0-5.53-4.91-8.86-9.53-6.97-3.36 1.33-4.44 4.96-4.17 7.5l-4.46 3.52c-2.5 1.33-5.9 0.92-8.06-2.1l-1.24-13.25c3.77-1.94 5.25-5.22 4.66-8.46-1.18-6.4-9.7-8.42-12.83-2.21-1.27 2.74-1.09 4.33 0 7.12l-12.9 11.39c-2.89 2.33-5.55 0.34-6.14-3.59l-0.78-12.21c3.68-1.81 5.45-4.75 4.77-8.29-0.77-3.99-3.75-5.49-6.4-5.49-6.27 0-9.03 8.08-4.61 12.26 1.1 1.1 2.22 1.72 3.33 2.11l1.23 9.51c0.73 4.9-2.16 5.29-5 2.16l-16.06-15.69c2.17-5.28-1.29-10.47-6.17-10.47-4.03 0-5.3 2.61-6.41 5.98l-20.76 1.95c-1.18-5.56-5.06-8.1-10.36-7.81-8.63 0.48-11.87 9.93-8.31 15.94l-19.01 19.19c-2.16-1.61-4.1-2.08-5.9-2.08-7.52 0-10.72 6.71-10.25 11.31 0.53 5.38 5.33 8.84 10.49 8.79l1.93 11.24c1.3 6.32 4.14 10.9 8.16 14.32l26.29 24.51c-1.84 3.47-1.95 8.15 1.13 11.71 5.29 5.83 15.3 2.86 16.68-5.04 0.81-6.72-5.21-14.2-15.68-9.88l-26.09-23.62c-3.97-3.14-7.16-7.56-8.41-15.1l-0.85-8.2 2.98-1.95 27.32 21.22c-2.11 4.42-1.48 9.7 2.72 12.81 4.46 3.08 9.45 2.1 13.3-0.54l25.01 18.22c-1.28 3.01-1.45 6.32-0.17 9.46l-22.11 17.68c-4.92-4.42-10.97-3.61-14.28-0.33l-22.9-17.49c3.31-6.36-1.48-14.67-9.67-14.67-8.34 0-12.02 8.95-9.15 14.78 3.17 6.6 10.91 7.35 16.53 2.82l23.44 18.16c-2.66 6.96 2.68 13.68 9.14 13.29 7.89-0.4 11.25-8.09 8.67-13.81l21.82-17.58c3.52 2.83 7.89 2.63 10.88 1.03 3.97 4.14 5.66 8.07 7.03 11.4l7.03 19.04c2.81 5.79 5.59 9.04 9.47 12.57-0.52 5.19 3.63 7.74 6.89 7.51 5.34-0.39 7.87-5.1 6.91-8.18-0.8-3.04-3.21-4.71-5.93-5.26l-3.03-13.31c0.89-3.7 3.26-7.94 8.43-7.82l6.11 0.42c1.73 3.33 3.81 4.62 6.79 4.62 5.19 0 6.86-4.7 6.57-7.08-0.73-5.46-7.44-8.04-11.57-3.57l-2.17 2.22c-2.35 0.48-7.91 0.22-9.86-0.75-1.89-0.9-1.45-2.52-0.12-4.68l4.14-6.68c3.02-1.05 6.79-0.46 8.75-4.25 2.29-1.34 6.34-0.37 12.05 1.34 1.64 4.99 4.65 6.35 7.86 6 5.4-0.58 6.44-5.83 5.77-8.14-1.2-4.07-5.33-5.78-7.7-5.52l-6.53-15.32c-1.53-3.91 0.94-5.92 4.63-4.45l10.32 3.94c0.17 4.79 3.6 7.14 6.91 6.75 5.63-0.59 7.18-5.95 5.48-8.88-1-2.07-2.4-3.52-5.06-3.89zm-21.77-45.87 1.45 0.72-7.52 28.08c-1.56 5.82-5.91 8-10.61 5.21-6.4-3.53-9.17-4.79-9.59-10.34-0.34-4.3 3.81-7.9 8.69-11.39 5.57 0.8 8.55-2.44 9.3-8.29l5.29-3.98c1.57-0.95 2.35-0.44 2.99-0.01zm-37.86-6.21 13.78-11.74c2.08-0.81 4.04 0.11 4.4 2.95l0.8 10.69c-1.12 2.26-4.29 2.91-4.82 7.69-0.33 2.57 1.05 4.29 0.82 5.7-0.29 1.5-4.44 6.88-7.27 8.44-2.56 1.16-4.9-0.51-6.18-4.44l-2.05-6.01c0-2.96 2.66-4.7 2.79-8.9 0.05-1.54-0.39-2.85-2.27-4.38zm-22.83 34.88c-3.98-0.16-6.61 0.82-8.39 2.63l-27.46-21.53c3.52-7.73-2.44-15.02-9.21-14.7-6.78 0.33-10.76 6.44-10.23 10.7 0.71 6.84 7.3 10.77 12.8 9.15 2.27-0.67 3.56-1.35 4.84-2.54l27.69 22.2c-1.68 3.76-1.49 8.91 1.81 11.93 1.94 1.68 3.85 2.21 6.05 2.48v9.78c-2.27 0.2-4.59 1.17-5.91 2.89l-23.95-17.88c3.14-6.97-1.43-15.11-9.52-14.72-3.14 0.16-5.31 1.28-6.79 2.56l-26.65-22.52c1.73-2.89 1.73-6.11-0.15-9.44l17.95-19.26c4.77 3.14 10.48 2.32 14.6-1.2l25.54 17.87c-1.95 3.93-2.04 8.8 1.79 12.47 6.02 5.59 14.03 2.09 15.71-3.87 2-7.31-3.51-13.82-11.15-13-2.66 0.32-4.63 1.35-5.98 2.7l-23.18-18.28c0.21-0.95 0.3-1.85 0.31-2.71l20.69-3.11c1.66 4 5.62 5.3 9.82 3.62l18.29 17.93c-1.31 3.67-0.59 9.52 6.87 12.56 2.83 1.04 4.23 7.29 5.4 11.99-1.73 1.81-2.87 4.05-3.15 7.6-0.32 2-2.56 4.98-10.82 7.71-1.78-2.7-4.5-3.88-7.62-4.01zm29.89 31.06c3.82-3.4 2.86-9.84-1.17-12.06-3.89-2.05-7.02-0.61-9.61 0.88l-10.99-6.35c0.47-2.38 0.36-4.25-0.06-5.68l8.9-4.13c3.1-0.9 5.75 0.98 7.49 1.45 3.27 0.95 5.08-0.72 6.64-1.04 2.32-0.58 4.87 1.15 14.16 6.47 0.37 3.4 1.14 7.45 8.67 9.83 2.22 0.37 3.67 2.08 4.44 4.37l5.56 13.31c0.86 1.81-0.74 4.24-3.2 3.94l-8.9-2.05c-1.01-4.49-3.98-6.3-7.57-5.9-5.39 0.63-7.24 5.88-5.33 11.24l-5.84 8.29c-2.34 2.61-4.17 1.72-4.46-1.61l-0.53-15.87c0.49-1.93 1.03-3.35 1.8-5.09zm0.16 55.37c-2.66 1.56-3.14 1.73-6.92-3.05-3.06-3.93-8.11-19.11-17.89-35.87 5.56-4.9 4.34-14.52-4.89-16.8l0.17-10.51c2.28-0.46 4.29-1.62 5.89-3.49l11.13 6.47c-0.73 4.25 1.16 7.39 5.29 10.09 1.55 1.23 1.85 2.88 2.08 5.84l0.8 14.09c-0.12 2.05-1.09 3.1-2.77 4.6-4.13 3.93-3.75 11.41 3.77 14.27 1.38 1.03 2.3 9.03 3.34 14.36z" fill="url(#paint0_linear_313_23290)"/>
  <path d="m43.65 60.61c-4.55 0-6.59 4.46-5.49 8.03 1.51 4.8 7.5 5.61 10.34 1.78 2.99-4.08 0.3-9.81-4.85-9.81z" fill="url(#paint1_linear_313_23290)"/>
  <path d="m76.61 28.26c-4.88 0.53-6.3 6.23-4.26 9.65 2.78 4.67 9.16 3.64 11.06-0.78 1.88-4.59-1.8-9.38-6.8-8.87z" fill="url(#paint2_linear_313_23290)"/>
  <path d="m82.42 61.51c-4.46 1.05-6.1 4.98-5.05 8.2 1.85 5.42 8.37 5.2 10.74 1.43 3.04-4.85-0.6-10.64-5.69-9.63z" fill="url(#paint3_linear_313_23290)"/>
  <path d="m85.43 95.26c-3.92 0.96-5.42 5.38-4.03 8.27 2.38 5.19 8.4 3.75 10.21 0.79 3-4.94-1.38-10.3-6.18-9.06z" fill="url(#paint4_linear_313_23290)"/>
  <path d="m122.5 59.45c-4.29-3.43-9.73-0.26-9.92 4.48-0.2 5.13 4.88 7.76 8.82 5.49 4.43-2.44 4.14-7.58 1.1-9.97z" fill="url(#paint5_linear_313_23290)"/>
  <path d="m125.9 95.01c-5.75-0.29-6.79 5.72-5.41 8.52 2.17 4.58 8.91 4.01 10.39 0.08 1.62-4.46-0.77-8.35-4.98-8.6z" fill="url(#paint6_linear_313_23290)"/>
  <path d="m125.9 124.8c-5.45-0.05-5.93 5.17-5.42 8.04 1.18 4.34 7.39 5.4 10.11 1.87 2.56-3.6 0.89-9.83-4.69-9.91z" fill="url(#paint7_linear_313_23290)"/>
  <path d="m87.79 125.3c-5.31 0.48-6.18 6.03-4.28 9.41 2.59 4.28 8.87 3.01 10.35-0.79 1.85-4.78-1.54-9.05-6.07-8.62z" fill="url(#paint8_linear_313_23290)"/>
  <path d="m48.56 125.2c-5.48 0.58-6.46 6.65-4.12 9.98 2.89 4.24 9.78 2.62 10.78-1.96 1.06-4.42-2.01-8.47-6.66-8.02z" fill="url(#paint9_linear_313_23290)"/>
  <path d="m88.77 155.2c-5.54 0.53-6.46 6.88-3.48 9.9 3.76 3.8 9.63 1.12 10.15-3.36 0.44-3.8-2.82-6.88-6.67-6.54z" fill="url(#paint10_linear_313_23290)"/>
  <path d="m3.4 224.7v-3.56h11.21c2.29 0 2.26-4.04 0-4.04h-6.72c-6.1 0-5.9-5.08-5.44-7.75 0.6-3.08 2.63-3.53 5.04-3.53h11.4v3.42h-10.75c-2.2 0-2.28 4.77 0.04 4.77h7.45c5.29 0 4.42 5.64 3.93 7.88-0.81 3.01-3.43 2.81-5.55 2.81h-10.61z" fill="url(#paint11_linear_313_23290)"/>
  <path d="m22.41 205.8h3.85v10.46c0 3.88 1.21 4.86 3.8 4.86h4.94c2.78 0 3.91-1.1 3.88-4.83l0.06-10.49h3.66l-0.19 11.61c0 5.22-2.4 7.35-6.7 7.35h-4.91c-5.31 0-8.39-1.62-8.39-7.35v-11.61z" fill="url(#paint11_linear_313_23290)"/>
  <path d="m46.31 205.8h12.33c4.73 0 5.27 3.01 5.25 6.2-0.03 2.69-0.95 6.95-5.48 6.77h-8.4v5.91h-3.7v-18.88zm10.92 9.71c2.47 0 3.38-0.94 3.33-3.29-0.06-2.31-1.08-3.23-3.12-3.23h-7.6v6.52h7.39z" fill="url(#paint11_linear_313_23290)"/>
  <path d="m72.99 205.8h11.45v3.27h-11.13c-2.19 0-3.12 1.12-3.06 3.56l0.03 1.16h13.7v3.18h-13.7l-0.03 1.28c-0.06 2.16 0.81 3.03 3.18 3.03h11.03v3.36h-11.13c-4.91 0-6.71-2.1-6.71-7.61v-2.99c0-5.89 1.66-8.24 6.37-8.24z" fill="url(#paint11_linear_313_23290)"/>
  <path d="m87.39 205.8h12.53c4.45 0 5.71 1.98 5.65 6.36-0.03 3.08-1 4.62-2.98 5.66l3.72 6.86h-4.3l-3.39-6.05h-7.7v6.05h-3.53v-18.88zm11.4 9.62c2.02 0 2.85-1.35 2.8-3.34-0.06-2.09-1.02-3.09-2.94-3.09h-7.87v6.43h8.01z" fill="url(#paint11_linear_313_23290)"/>
  <path d="m108.7 208.2c0-1.71 0.84-2.46 2.22-2.41h2.68c1.16-0.05 2.02 0.72 2.58 2.55l4.88 13.25h0.17l5-13.85c0.49-1.34 1.2-2.01 2.69-1.95h2.32c1.55-0.05 2.08 0.81 2.02 3.02l-0.23 15.92h-3.52l0.23-15.64h-0.51l-5.59 14.67c-0.54 1.39-1.02 1.45-2.24 1.45h-0.98c-1.38 0-1.92-0.35-2.49-1.88l-5.44-14.24h-0.46l-0.22 15.64h-3.39l0.28-16.53z" fill="url(#paint11_linear_313_23290)"/>
  <path d="m142.6 205.8h9.98v3.27h-9.75c-2.19 0-3.11 1.12-3.05 3.56l0.03 1.16h12.6v3.18h-12.6l-0.03 1.28c-0.06 2.16 0.81 3.03 3.17 3.03h9.66v3.36h-9.86c-4.91 0-7.12-2.1-7.12-7.61v-2.99c0-5.89 2.26-8.24 6.97-8.24z" fill="url(#paint11_linear_313_23290)"/>
  <path d="m155.4 208.2c0-1.71 0.84-2.46 2.22-2.41h2.68c1.16-0.05 2.02 0.72 2.58 2.55l4.88 13.25h0.17l5-13.85c0.49-1.34 1.19-2.01 2.69-1.95h2.32c1.55-0.05 2.08 0.81 2.02 3.02l-0.23 15.92h-3.52l0.23-15.64h-0.51l-5.59 14.67c-0.54 1.39-1.02 1.45-2.24 1.45h-0.98c-1.38 0-1.92-0.35-2.49-1.88l-5.44-14.24h-0.46l-0.22 15.64h-3.39l0.28-16.53z" fill="url(#paint11_linear_313_23290)"/>
  <path d="m189.4 205.7h8.16c5.12 0 6.02 3.1 6.02 8.42v2.53c0 5.35-1.95 8.11-6.63 8.11h-6.52c-5.06 0-6.38-2.56-6.38-8.02v-2.53c0-5.73 1.69-8.51 5.35-8.51zm-1.83 10.5c0 3.9 0.87 4.94 3.23 4.94h6.02c2.32 0 3.08-1.27 3.08-5.03v-2.13c-0.03-3.4-0.95-5-3.54-5h-5.73c-2.42 0-3.09 1.54-3.06 4.94v2.28z" fill="url(#paint11_linear_313_23290)"/>
  <path d="m207.1 205.8h13.52c4.45 0 5.34 1.98 5.28 6.36-0.03 3.08-0.89 4.3-2.56 5.66l3.46 6.86h-4.3l-3.53-6.05h-8.34v6.05h-3.53v-18.88zm12.5 9.62c2.01 0 2.5-1.35 2.44-3.34-0.05-2.09-0.77-3.09-2.69-3.09h-8.8v6.43h9.05z" fill="url(#paint11_linear_313_23290)"/>
  <path d="m225.7 205.7h4.29l7.1 10.41 6.17-10.41h3.82l-8.37 13.38v5.62h-3.52v-5.73l-9.49-13.27z" fill="url(#paint11_linear_313_23290)"/>
  <defs>
    <linearGradient id="paint0_linear_313_23290" x1="33.08" x2="214.9" y1="107.2" y2="107.2" gradientUnits="userSpaceOnUse">
      <stop stop-color="#2659D4" offset="0"/>
      <stop stop-color="#00E1DB" offset="1"/>
    </linearGradient>
    <linearGradient id="paint1_linear_313_23290" x1="37.68" x2="49.62" y1="67.15" y2="67.15" gradientUnits="userSpaceOnUse">
      <stop stop-color="#00B0FF" offset="0"/>
      <stop stop-color="#00E1DB" offset="1"/>
    </linearGradient>
    <linearGradient id="paint2_linear_313_23290" x1="71.25" x2="84.12" y1="33.77" y2="33.77" gradientUnits="userSpaceOnUse">
      <stop stop-color="#00E1DB" offset="0"/>
      <stop stop-color="#00FEFF" offset="1"/>
    </linearGradient>
    <linearGradient id="paint3_linear_313_23290" x1="76.89" x2="89.6" y1="66.93" y2="66.93" gradientUnits="userSpaceOnUse">
      <stop stop-color="#00E1DB" offset="0"/>
      <stop stop-color="#00FEFF" offset="1"/>
    </linearGradient>
    <linearGradient id="paint4_linear_313_23290" x1="80.74" x2="92.86" y1="101.1" y2="101.1" gradientUnits="userSpaceOnUse">
      <stop stop-color="#00E1DB" offset="0"/>
      <stop stop-color="#00FEFF" offset="1"/>
    </linearGradient>
    <linearGradient id="paint5_linear_313_23290" x1="112.6" x2="125.3" y1="65.16" y2="65.16" gradientUnits="userSpaceOnUse">
      <stop stop-color="#00E1DB" offset="0"/>
      <stop stop-color="#00FEFF" offset="1"/>
    </linearGradient>
    <linearGradient id="paint6_linear_313_23290" x1="119.7" x2="131.8" y1="101" y2="101" gradientUnits="userSpaceOnUse">
      <stop stop-color="#00E1DB" offset="0"/>
      <stop stop-color="#00FEFF" offset="1"/>
    </linearGradient>
    <linearGradient id="paint7_linear_313_23290" x1="120.2" x2="133.3" y1="130.9" y2="130.9" gradientUnits="userSpaceOnUse">
      <stop stop-color="#00E1DB" offset="0"/>
      <stop stop-color="#00FEFF" offset="1"/>
    </linearGradient>
    <linearGradient id="paint8_linear_313_23290" x1="82.07" x2="95.04" y1="131.2" y2="131.2" gradientUnits="userSpaceOnUse">
      <stop stop-color="#00E1DB" offset="0"/>
      <stop stop-color="#00FEFF" offset="1"/>
    </linearGradient>
    <linearGradient id="paint9_linear_313_23290" x1="42.37" x2="55.87" y1="130.8" y2="130.8" gradientUnits="userSpaceOnUse">
      <stop stop-color="#00E1DB" offset="0"/>
      <stop stop-color="#00FEFF" offset="1"/>
    </linearGradient>
    <linearGradient id="paint10_linear_313_23290" x1="83.33" x2="95.62" y1="161.2" y2="161.2" gradientUnits="userSpaceOnUse">
      <stop stop-color="#00E1DB" offset="0"/>
      <stop stop-color="#00FEFF" offset="1"/>
    </linearGradient>
    <linearGradient id="paint11_linear_313_23290" x1="117.2" x2="117.2" y1="205.7" y2="224.9" gradientUnits="userSpaceOnUse">
      <stop stop-color="#2558D4" offset="0"/>
      <stop stop-color="#2490E2" offset="1"/>
    </linearGradient>
  </defs>
</svg>
