<svg xmlns="http://www.w3.org/2000/svg" width="256" height="256" fill="none" viewBox="0 0 256 256">
<!-- SVG created with Arrow, by QuiverAI (https://quiver.ai) -->
  <path d="m241.6 123.5-1.16-15.53 6.24-4.2 0.04-9.33-8-4.75-3.23 1.02-11.59-22.8 3.69-2.9v-13.59l-12.78-6.66-9.75 5.89-36.35-18.2 0.04-7.86-12.83-7.24-11.87 6.95-0.18 4.15-39.73-0.01-0.87-4.49-12.1-7.04-12.44 7.68v8.77l-27.05 16.23-7.9-4.92-12.48 6.63-0.19 12.5 1.55 2.11-14.35 20.59-3.91-2.2-10.28 6.57v13.86l10.6 7.29 6.22 21.07-6 4.04v13.03l11.37 7.16 12.46-7.48v-3.17h20.53v3.71l11.45 7.76 3.36-1.35 2.52 9.64-3.37 2.16v9.1l9.1 5.05 8.2-5.66v-1.52h23.92v4.86l11.8 6.49 5.2-2.91 27.53 31.98-1.76 1.39v13.22l12.55 7.29 12.09-6.95v-13.56l-9.89-6.67v-11.7l9.89-5.06v-7.39l18.89-10.11 10.58 6.3 14.71-8.86v-14.83l-2.17-1.4 10.98-11.23 5.56 3.26 11.87-6.66v-13.48l-10.71-6.04zm-6.52-15.8 1.84 16.06-5.02 3.1-13.97-9.98v-3.75l14.14-7.24 3.01 1.81zm-4.08-14.19-2.3 1.9v5.5l-14.88 7.28-5.02-3-5.57 2.7-10.04-11.61 0.24-18.87 12.37-10.02 9.9 5.5 2.52-2.08 12.78 22.7zm-62.93-54.82 33.8 16.16v7.81l-12.14 10.34-14.1-8.52-4.45 3.27-8.65-25.36 5.05-4.12 0.49 0.42zm-19.82 4.04 5.35 3.49 2.48-0.93 11.04 23.98-9.51 7-20.39-6.61v-8.68l-1.39-1.75 14.13-16.67-1.71 0.17zm-44.28-9.29 40 0.06 0.21 4.04 1.58 1.8-14.49 17.54-4.82-3.43-5.57 3.39-17.2-18.2 0.29-0.98v-4.22zm-17.96 44.7-5.24 1.75-25.14-17.18v-8.37l23.88-15.41 7.72 4.67-4.61 34.54h3.39zm-10.93 21.89 4.77-5.22 4.82 2.58 4.18-1.98 8.74 7.08-22.82 29.68-5.79-1.04-6.17-10.34 2.92-2.41v-12.08l9.35-6.27zm-25.99-30.13 2.68-2.51 23.31 17.3v5.75l-12.86 11.81-7.48-3.51-6.24-28.64 0.59-0.2zm-19.91 34.14 13.48 6.25v9.57l-10.56 12.82-6.09-2.96-6.63-20.67 5.69-4.01 4.11-1zm-6.59-15.07 14.79-20.83 6.03 3.4 5.14 28.87-4.85 4.08-16.65-5.53v-7.76l-4.46-2.23zm15.79 47.28 10.54-13.71 5.2 2.81 3.57-2.3 5.2 10.07-3.59 3.13v5.27l-20.53 0.18-0.39-5.45zm43.43-0.58 20.35-29.54 12.41 11.27v7.72l-32.14 11.61-0.62-1.06zm31.94 31.03v3.53h-22.78v-1.64l-8.5-5.31-4.55-9.25 5.79-3.87v-8.1l31.69-12.19 8 5.22v25.86l-9.65 5.75zm5.1-54.53-13.43-10.13 16.18-23.54 2.01 1.08v30.72l-4.76 1.87zm1.59-37.48-0.14-0.09 0.1-0.09 0.04 0.18zm-5.29-14.29-0.48 0.59v12.49l2.12 1.81-15.34 21.96-8.16-6.56 0.12-7.3-5.43-3.61 4.69-35.19 5-2.39 17.48 18.2zm13.07 19.49 8.69-5.1 21.01 7.32v12.62l-23.82 19.13-5.88-3.3v-30.67zm9.21 38.44 24.72-19.78 9.03 5.59-4.57 26.77-7.6 4.53-21.09-9.9-0.49-1.45v-5.76zm-3.73 45.79-5.48-3.4v-25.63l8.28-5.05 21.02 10.52v7.12l-23.82 16.44zm33.71 46.2-3.8 2.86-27.49-31.17 0.98-0.93 20.27 6.81v5.55l10 6.25 0.04 10.63zm14.48-30.12-11.81-6.99-12.65 7.28v1.78l-19.73-7.1v-6.13l23-17.4 9.3 6.25 9.41-6.17 17.89 10.5v10.26l-15.41 7.72zm0-42.09 21.49-16.12 5.71 3 5.39-3.54 13.6 9.94v12.5l-9.18 10.44-7.34-4.49-11.84 7.02-17.42-10.19-0.41-8.56zm-5.28-31.81 11.37-6.51 11.26 12.07v6.36l-21.54 17.53-4.56-3.67 3.47-25.78z" fill="url(#paint0_linear_1460_9728)"/>
  <defs>
    <linearGradient id="paint0_linear_1460_9728" x1="33.82" x2="208.7" y1="179.8" y2="9.907" gradientUnits="userSpaceOnUse">
      <stop stop-color="#0075FA" offset="0"/>
      <stop stop-color="#00B0F0" offset=".5208"/>
      <stop stop-color="#00FEFD" offset="1"/>
    </linearGradient>
  </defs>
</svg>
