<svg xmlns="http://www.w3.org/2000/svg" width="241" height="241" fill="none" viewBox="0 0 241 241">
<!-- SVG created with Arrow, by QuiverAI (https://quiver.ai) -->
  <path d="m218.4 132.8h-0.63c-7.2 0-12.35 3.95-15.51 7.99l-30.91-12.35c1.56-4.7 2.4-8.43 2.02-15.16-0.8-11.4-5.11-21.72-12.03-28.57l20.92-23.07c5.51 4.13 10.47 4.97 16.56 4.97 15.11 0 26.56-12.89 26.56-26.87 0-14.51-11.65-27.51-27.02-27.51h-0.41c-14.49 0-26.82 12.13-27.09 26.96-0.14 7.68 1.91 13.39 6.08 17.85l-20.76 23.89c-8.27-6.51-16.42-9.35-26.55-9.35h-0.26c-9.37 0-16.7 2.8-22.26 6.69l-24.19-35.07c5.44-4.67 5.87-11.49 5.64-17.2-0.79-12.34-11.03-21.39-22.47-21.12-12.36 0.33-22.01 10.59-21.82 22.38-0.05 11.97 10.53 22.17 21.79 21.98h0.6c4.74 0 7.91-0.94 10.51-2.42l24.97 35.55c-8.9 7.77-14.08 17.79-15.24 29.66l-37.77 0.24c-1.83-11.27-11.63-19.03-22.09-19.03h-0.71c-12.66 0-21.93 11.37-21.85 22.49-0.15 11.95 10.25 21.84 22.16 21.67h0.4c11.05 0 20.02-8.41 21.88-18.63l37.84 0.16c0.83 12.77 8.02 25.72 20.65 34.42l-13.53 30.82c-2.8-0.91-5.1-1.11-7.7-1.11-14.76 0-26.09 12.38-27.48 25.01-1.68 14.79 11.09 28.69 26.46 28.5h0.67c14.06 0 26.46-12.8 26.36-26.58-0.07-11.27-6.26-19.08-12.52-22.91l13.97-30.82c6.78 2.55 9.29 2.85 16.32 2.85 7.25 0 10.31-1.25 14.95-2.65l11.82 23.79c-4.47 3.34-5.79 8.61-5.35 12.61 0.95 7.74 7.9 13.1 14.12 12.91 9.29-0.11 14.33-8.19 13.93-14.97-0.67-8.04-7.26-14.09-16.56-13.59l-11.33-23.46c7.62-4.69 13.29-11.48 17.19-18.72l30.88 12.73c-0.81 9.69 6.95 21.26 17.76 21.1h0.64c10.06 0 18.34-9.28 18.41-17.06-0.47-9.43-7.76-19-18.02-19z" clip-rule="evenodd" fill="url(#paint0_linear_1871_52623)" fill-rule="evenodd"/>
  <defs>
    <linearGradient id="paint0_linear_1871_52623" x1="208.9" x2="40.45" y1="18.28" y2="229.5" gradientUnits="userSpaceOnUse">
      <stop stop-color="#0DC7D4" offset="0"/>
      <stop stop-color="#3E82F7" offset="1"/>
    </linearGradient>
  </defs>
</svg>
